<svg xmlns="http://www.w3.org/2000/svg" viewBox="0 0 64 64">
  <rect width="64" height="64" rx="13" fill="#070a12"/>
  <path d="M24.6 19.8h10.8c3.5 0 6.1 1.9 6.1 5 0 2.2-1.3 3.8-3.4 4.4 2.6.5 4.3 2.2 4.3 4.9 0 3.4-2.7 5.5-6.6 5.5H24.6V19.8Zm5.1 4.1v3.9H34c1.1 0 1.8-.7 1.8-1.9s-.7-2-1.8-2h-4.3Zm0 7.9v3.7h4.9c1.3 0 2-.6 2-1.8s-.8-1.9-2.1-1.9h-4.8Z" fill="#f4f7fb"/>
  <path d="M22.5 23.3c-3.4.2-5.5 2.1-5.5 4.7 0 3 2.4 4.3 5.7 5 2.2.5 3.1.9 3.1 1.9 0 1-1 1.5-2.7 1.5-2.1 0-3.9-.6-5.4-1.7l-2 3.8c1.9 1.2 4.3 1.9 7.1 1.9 4.8 0 7.8-2.2 7.8-5.8 0-3-2.1-4.4-5.7-5.2-2.2-.5-3.2-.9-3.2-1.8 0-.8.8-1.3 2.4-1.3h.9v-3Z" fill="#f4f7fb"/>
  <path d="M13 13h38" stroke="#22d3ee" stroke-width="2" stroke-linecap="round"/>
</svg>
